<svg xmlns="http://www.w3.org/2000/svg" width="128" height="128" viewBox="0 0 128 128" fill="none">
  <rect width="128" height="128" rx="16" fill="#FFFFFF"/>
  <g transform="translate(16,16)">
    <path d="M48 24c8 8 12 16 12 24 0 8-4 16-12 24-8-8-12-16-12-24 0-8 4-16 12-24z" fill="#CFAF6A"/>
    <path d="M48 20c-6 6-10 12-12 18-2 6-2 12 0 18 2 6 6 12 12 18 6-6 10-12 12-18 2-6 2-12 0-18-2-6-6-12-12-18z" stroke="#A61B1B" stroke-width="2" fill="none"/>
    <path d="M48 42c6-6 14-10 26-10-4 10-10 16-18 18" stroke="#A61B1B" stroke-width="2" fill="none"/>
    <path d="M48 42c-6-6-14-10-26-10 4 10 10 16 18 18" stroke="#A61B1B" stroke-width="2" fill="none"/>
    <circle cx="48" cy="64" r="2" fill="#A61B1B"/>
  </g>
</svg>
